<svg width="352" height="103" viewBox="0 0 352 103" fill="none" xmlns="http://www.w3.org/2000/svg">
<g clip-path="url(#clip0_116_11647)">
<path d="M49.66 64.1904H25.4L0 102.44H13.01C20.04 102.44 26.6 98.9204 30.49 93.0704L49.67 64.1904H49.66Z" fill="#FF8113"/>
<path d="M81.4706 64.1904H57.2105L31.8105 25.9404H44.8205C51.8505 25.9404 58.4105 29.4604 62.3005 35.3104L81.4806 64.1904H81.4706Z" fill="white"/>
<path d="M69.3905 45.9902L57.3005 64.1902H57.2105L31.8105 102.44H44.8205C51.8505 102.44 58.4105 98.9202 62.3005 93.0702L81.4806 64.1902L69.3905 45.9902Z" fill="white"/>
<path d="M113.27 64.19H89.0096L45.5996 0H58.6096C65.6396 0 72.1996 3.52 76.0896 9.37L113.28 64.19H113.27Z" fill="white"/>
<path d="M101.18 45.9902L89.0896 64.1902H88.9996L63.5996 102.44H76.6096C83.6396 102.44 90.1996 98.9202 94.0896 93.0702L113.27 64.1902L101.18 45.9902Z" fill="white"/>
<path d="M150.709 75.1595C149.759 76.7595 148.519 77.9095 146.979 78.6095C145.439 79.3095 143.699 79.6595 141.759 79.6595C139.559 79.6595 137.619 79.2295 135.949 78.3795C134.279 77.5195 132.899 76.3695 131.819 74.8995C130.739 73.4395 129.919 71.7595 129.369 69.8595C128.819 67.9595 128.539 65.9795 128.539 63.9295C128.539 61.8795 128.819 60.0495 129.369 58.1995C129.919 56.3595 130.739 54.7295 131.819 53.3295C132.899 51.9195 134.259 50.7895 135.899 49.9395C137.529 49.0795 139.429 48.6595 141.599 48.6595C143.349 48.6595 145.009 49.0295 146.589 49.7695C148.169 50.5095 149.409 51.5995 150.319 53.0495H150.429V38.2295H158.519V78.9295H150.829V75.1695H150.719L150.709 75.1595ZM150.369 60.5995C150.139 59.4795 149.749 58.4895 149.199 57.6395C148.649 56.7795 147.939 56.0895 147.059 55.5595C146.189 55.0295 145.079 54.7595 143.749 54.7595C142.419 54.7595 141.299 55.0295 140.389 55.5595C139.479 56.0895 138.749 56.7995 138.199 57.6695C137.649 58.5395 137.249 59.5395 136.999 60.6595C136.749 61.7795 136.629 62.9495 136.629 64.1695C136.629 65.3095 136.759 66.4495 137.029 67.5895C137.289 68.7295 137.719 69.7495 138.309 70.6395C138.899 71.5295 139.639 72.2595 140.529 72.8095C141.419 73.3595 142.499 73.6395 143.749 73.6395C145.079 73.6395 146.189 73.3695 147.079 72.8395C147.969 72.3095 148.679 71.5995 149.219 70.6995C149.749 69.8095 150.129 68.7895 150.359 67.6495C150.589 66.5095 150.699 65.3295 150.699 64.1195C150.699 62.9095 150.589 61.7395 150.359 60.6195L150.369 60.5995Z" fill="white"/>
<path d="M172.709 38.2297V53.0497H172.819C173.809 51.5297 175.149 50.4197 176.839 49.7197C178.529 49.0197 180.289 48.6697 182.109 48.6697C183.589 48.6697 185.049 48.9697 186.499 49.5797C187.939 50.1897 189.249 51.1197 190.399 52.3697C191.559 53.6197 192.499 55.2297 193.219 57.1897C193.939 59.1497 194.299 61.4697 194.299 64.1697C194.299 66.8697 193.939 69.1997 193.219 71.1497C192.499 73.1097 191.559 74.7097 190.399 75.9697C189.239 77.2297 187.939 78.1597 186.499 78.7597C185.059 79.3597 183.589 79.6697 182.109 79.6697C179.939 79.6697 178.009 79.3297 176.299 78.6397C174.589 77.9597 173.299 76.7997 172.419 75.1597H172.309V78.9197H164.609V38.2197H172.699L172.709 38.2297ZM185.819 60.6297C185.549 59.4897 185.139 58.4797 184.569 57.6097C183.999 56.7397 183.289 56.0397 182.429 55.5297C181.569 55.0197 180.539 54.7597 179.319 54.7597C178.099 54.7597 177.119 55.0197 176.239 55.5297C175.359 56.0397 174.639 56.7397 174.069 57.6097C173.499 58.4897 173.079 59.4897 172.819 60.6297C172.549 61.7697 172.419 62.9697 172.419 64.2197C172.419 65.4697 172.549 66.6097 172.819 67.7497C173.089 68.8897 173.499 69.8997 174.069 70.7697C174.639 71.6497 175.359 72.3397 176.239 72.8497C177.109 73.3597 178.139 73.6197 179.319 73.6197C180.499 73.6197 181.569 73.3597 182.429 72.8497C183.279 72.3397 183.999 71.6397 184.569 70.7697C185.139 69.8997 185.559 68.8897 185.819 67.7497C186.089 66.6097 186.219 65.4297 186.219 64.2197C186.219 63.0097 186.089 61.7697 185.819 60.6297Z" fill="white"/>
<path d="M215.629 49.4599V54.8799H209.699V69.4699C209.699 70.8399 209.929 71.7499 210.379 72.2099C210.839 72.6699 211.749 72.8899 213.119 72.8899C213.579 72.8899 214.009 72.8699 214.429 72.8299C214.849 72.7899 215.249 72.7399 215.629 72.6599V78.9299C214.949 79.0399 214.189 79.1199 213.349 79.1599C212.509 79.1999 211.699 79.2199 210.899 79.2199C209.649 79.2199 208.459 79.1299 207.339 78.9599C206.219 78.7899 205.229 78.4599 204.379 77.9599C203.519 77.4699 202.849 76.7599 202.359 75.8499C201.859 74.9399 201.619 73.7399 201.619 72.2599V54.8799H196.719V49.4599H201.619V40.6299H209.709V49.4599H215.639H215.629Z" fill="white"/>
<path d="M225.09 49.4593V53.4493H225.2C226 51.8193 227.25 50.6293 228.96 49.8893C230.67 49.1493 232.55 48.7793 234.6 48.7793C236.88 48.7793 238.87 49.1993 240.56 50.0293C242.25 50.8693 243.66 51.9993 244.78 53.4193C245.9 54.8493 246.75 56.4893 247.32 58.3493C247.89 60.2093 248.18 62.1893 248.18 64.2793C248.18 66.3693 247.9 68.3493 247.35 70.2093C246.8 72.0693 245.96 73.6993 244.84 75.0793C243.72 76.4693 242.31 77.5593 240.62 78.3593C238.93 79.1593 236.96 79.5593 234.72 79.5593C234 79.5593 233.19 79.4793 232.3 79.3293C231.41 79.1793 230.52 78.9293 229.65 78.5893C228.78 78.2493 227.95 77.7793 227.17 77.1893C226.39 76.5993 225.74 75.8693 225.2 74.9993H225.09V90.1593H220.25V49.4593H225.09ZM242.5 59.9193C242.14 58.6093 241.59 57.4393 240.85 56.4193C240.11 55.3893 239.16 54.5793 238 53.9693C236.84 53.3593 235.48 53.0593 233.92 53.0593C232.29 53.0593 230.9 53.3793 229.76 54.0293C228.62 54.6793 227.69 55.5193 226.97 56.5693C226.25 57.6093 225.72 58.7993 225.4 60.1293C225.08 61.4593 224.92 62.8093 224.92 64.1793C224.92 65.6193 225.09 67.0193 225.43 68.3693C225.77 69.7193 226.31 70.9093 227.05 71.9293C227.79 72.9593 228.75 73.7793 229.93 74.4093C231.11 75.0393 232.53 75.3493 234.21 75.3493C235.89 75.3493 237.28 75.0293 238.4 74.3793C239.52 73.7293 240.42 72.8793 241.11 71.8093C241.79 70.7493 242.29 69.5293 242.59 68.1593C242.89 66.7893 243.05 65.3893 243.05 63.9393C243.05 62.5693 242.87 61.2293 242.51 59.9193H242.5Z" fill="white"/>
<path d="M279.98 78.81C279.14 79.3 277.98 79.55 276.5 79.55C275.25 79.55 274.25 79.2 273.51 78.5C272.77 77.8 272.4 76.65 272.4 75.05C271.07 76.65 269.52 77.8 267.75 78.5C265.98 79.2 264.07 79.55 262.02 79.55C260.69 79.55 259.43 79.4 258.23 79.09C257.03 78.79 256 78.31 255.12 77.67C254.24 77.02 253.55 76.18 253.04 75.13C252.53 74.09 252.27 72.82 252.27 71.34C252.27 69.67 252.56 68.3 253.13 67.24C253.7 66.18 254.45 65.31 255.38 64.65C256.31 63.98 257.38 63.48 258.57 63.14C259.76 62.8 260.99 62.51 262.25 62.29C263.58 62.02 264.84 61.82 266.04 61.69C267.24 61.56 268.29 61.37 269.2 61.12C270.11 60.87 270.83 60.51 271.37 60.04C271.9 59.57 272.17 58.87 272.17 57.96C272.17 56.9 271.97 56.04 271.57 55.39C271.17 54.74 270.66 54.25 270.03 53.91C269.4 53.57 268.7 53.34 267.92 53.23C267.14 53.12 266.37 53.06 265.61 53.06C263.56 53.06 261.85 53.45 260.48 54.23C259.11 55.01 258.37 56.48 258.26 58.65H253.42C253.5 56.83 253.88 55.29 254.56 54.03C255.24 52.77 256.16 51.76 257.3 50.98C258.44 50.2 259.74 49.64 261.2 49.3C262.66 48.96 264.23 48.79 265.9 48.79C267.23 48.79 268.55 48.89 269.86 49.08C271.17 49.27 272.36 49.66 273.42 50.25C274.48 50.84 275.34 51.66 275.98 52.72C276.63 53.78 276.95 55.17 276.95 56.87V72C276.95 73.14 277.02 73.97 277.15 74.5C277.28 75.03 277.73 75.3 278.49 75.3C278.91 75.3 279.4 75.22 279.97 75.07V78.83L279.98 78.81ZM272.11 63.71C271.5 64.16 270.7 64.49 269.72 64.7C268.73 64.91 267.7 65.08 266.61 65.21C265.53 65.34 264.43 65.49 263.33 65.66C262.23 65.83 261.24 66.1 260.37 66.48C259.49 66.86 258.78 67.4 258.23 68.1C257.68 68.8 257.4 69.76 257.4 70.96C257.4 71.75 257.56 72.43 257.88 72.97C258.2 73.52 258.62 73.96 259.13 74.3C259.64 74.64 260.24 74.89 260.92 75.04C261.6 75.19 262.33 75.27 263.09 75.27C264.69 75.27 266.05 75.05 267.19 74.62C268.33 74.19 269.26 73.64 269.98 72.97C270.7 72.31 271.23 71.59 271.58 70.81C271.92 70.04 272.09 69.31 272.09 68.63V63.7L272.11 63.71Z" fill="white"/>
<path d="M289.039 49.4595V54.1295H289.149C291.159 50.5595 294.359 48.7695 298.729 48.7695C300.669 48.7695 302.279 49.0395 303.569 49.5695C304.859 50.0995 305.909 50.8395 306.699 51.7895C307.499 52.7395 308.059 53.8695 308.379 55.1795C308.699 56.4895 308.859 57.9395 308.859 59.5395V78.9195H304.019V58.9695C304.019 57.1495 303.489 55.6995 302.419 54.6395C301.359 53.5795 299.889 53.0395 298.029 53.0395C296.549 53.0395 295.269 53.2695 294.179 53.7195C293.089 54.1695 292.189 54.8195 291.469 55.6595C290.749 56.4995 290.209 57.4795 289.849 58.5995C289.489 59.7195 289.309 60.9495 289.309 62.2795V78.9195H284.469V49.4495H289.029L289.039 49.4595Z" fill="white"/>
<path d="M337.038 77.0395C334.838 78.7095 332.058 79.5495 328.718 79.5495C326.358 79.5495 324.318 79.1695 322.588 78.4095C320.858 77.6495 319.408 76.5895 318.228 75.2195C317.048 73.8495 316.168 72.2195 315.578 70.3195C314.988 68.4195 314.658 66.3495 314.578 64.1095C314.578 61.8695 314.918 59.8195 315.608 57.9495C316.288 56.0895 317.248 54.4695 318.488 53.0995C319.728 51.7295 321.188 50.6695 322.878 49.9095C324.568 49.1495 326.418 48.7695 328.438 48.7695C331.058 48.7695 333.238 49.3095 334.968 50.3895C336.698 51.4695 338.088 52.8495 339.128 54.5195C340.168 56.1895 340.898 58.0195 341.298 59.9895C341.698 61.9695 341.858 63.8495 341.778 65.6295H319.718C319.678 66.9195 319.828 68.1495 320.178 69.3095C320.518 70.4695 321.068 71.4995 321.828 72.3895C322.588 73.2795 323.558 73.9995 324.738 74.5295C325.918 75.0595 327.298 75.3295 328.898 75.3295C330.948 75.3295 332.628 74.8595 333.938 73.9095C335.248 72.9595 336.108 71.5195 336.528 69.5795H341.318C340.668 72.8895 339.248 75.3695 337.038 77.0495V77.0395ZM335.868 58.1195C335.428 57.0895 334.838 56.2095 334.098 55.4695C333.358 54.7295 332.478 54.1395 331.478 53.6995C330.468 53.2595 329.358 53.0395 328.148 53.0395C326.938 53.0395 325.758 53.2595 324.758 53.6995C323.748 54.1395 322.888 54.7395 322.168 55.4995C321.448 56.2595 320.878 57.1395 320.458 58.1495C320.038 59.1595 319.788 60.2295 319.718 61.3695H336.648C336.568 60.2295 336.318 59.1495 335.878 58.1195H335.868Z" fill="white"/>
<path d="M351.909 38.2295V78.9295H347.059V38.2295H351.909Z" fill="white"/>
</g>
<defs>
<clipPath id="clip0_116_11647">
<rect width="351.91" height="102.44" fill="white"/>
</clipPath>
</defs>
</svg>
